<mxfile host="app.diagrams.net" modified="2022-08-18T14:04:40.096Z" agent="5.0 (X11)" etag="zrY9_XjfeobHZ47BMzmL" version="20.2.4" type="github">
  <diagram id="J__HdVsJIr5SyrQDiXUM" name="Page-1">
    <mxGraphModel dx="1102" dy="587" grid="1" gridSize="10" guides="1" tooltips="1" connect="1" arrows="1" fold="1" page="1" pageScale="1" pageWidth="800" pageHeight="800" math="0" shadow="0">
      <root>
        <mxCell id="0" />
        <mxCell id="1" parent="0" />
        <mxCell id="qEeFTIqIXQlI-F8TJPD6-39" value="&lt;div&gt;&lt;b&gt;CPU&lt;/b&gt;&lt;/div&gt;&lt;div&gt;&lt;b&gt;&lt;br&gt;&lt;/b&gt;&lt;/div&gt;&lt;div&gt;&lt;b&gt;&lt;br&gt;&lt;/b&gt;&lt;/div&gt;&lt;div&gt;&lt;b&gt;&lt;br&gt;&lt;/b&gt;&lt;/div&gt;&lt;div&gt;&lt;b&gt;&lt;br&gt;&lt;/b&gt;&lt;/div&gt;&lt;div&gt;&lt;b&gt;&lt;br&gt;&lt;/b&gt;&lt;/div&gt;&lt;div&gt;&lt;b&gt;&lt;br&gt;&lt;/b&gt;&lt;/div&gt;&lt;div&gt;&lt;b&gt;&lt;br&gt;&lt;/b&gt;&lt;/div&gt;&lt;div&gt;&lt;b&gt;&lt;br&gt;&lt;/b&gt;&lt;/div&gt;&lt;div&gt;&lt;b&gt;&lt;br&gt;&lt;/b&gt;&lt;/div&gt;&lt;div&gt;&lt;b&gt;&lt;br&gt;&lt;/b&gt;&lt;/div&gt;&lt;div&gt;&lt;b&gt;&lt;br&gt;&lt;/b&gt;&lt;/div&gt;&lt;div&gt;&lt;b&gt;&lt;br&gt;&lt;/b&gt;&lt;/div&gt;&lt;div&gt;&lt;b&gt;&lt;br&gt;&lt;/b&gt;&lt;/div&gt;&lt;div&gt;&lt;b&gt;&lt;br&gt;&lt;/b&gt;&lt;/div&gt;&lt;div&gt;&lt;b&gt;&lt;br&gt;&lt;/b&gt;&lt;/div&gt;&lt;div&gt;&lt;b&gt;&lt;br&gt;&lt;/b&gt;&lt;/div&gt;&lt;div&gt;&lt;b&gt;&lt;br&gt;&lt;/b&gt;&lt;/div&gt;&lt;div&gt;&lt;b&gt;&lt;br&gt;&lt;/b&gt;&lt;/div&gt;&lt;div&gt;&lt;b&gt;&lt;br&gt;&lt;/b&gt;&lt;/div&gt;&lt;div&gt;&lt;b&gt;&lt;br&gt;&lt;/b&gt;&lt;/div&gt;&lt;div&gt;&lt;b&gt;&lt;br&gt;&lt;/b&gt;&lt;/div&gt;" style="whiteSpace=wrap;html=1;aspect=fixed;" vertex="1" parent="1">
          <mxGeometry x="40" y="120" width="380" height="380" as="geometry" />
        </mxCell>
        <mxCell id="qEeFTIqIXQlI-F8TJPD6-75" value="" style="shape=flexArrow;endArrow=classic;startArrow=classic;html=1;rounded=0;strokeWidth=1;entryX=0;entryY=0.5;entryDx=0;entryDy=0;exitX=0.726;exitY=1;exitDx=0;exitDy=0;exitPerimeter=0;fillColor=default;" edge="1" parent="1" target="qEeFTIqIXQlI-F8TJPD6-52">
          <mxGeometry width="100" height="100" relative="1" as="geometry">
            <mxPoint x="119.51999999999992" y="450" as="sourcePoint" />
            <mxPoint x="119.82" y="360" as="targetPoint" />
            <Array as="points">
              <mxPoint x="120" y="410" />
            </Array>
          </mxGeometry>
        </mxCell>
        <mxCell id="qEeFTIqIXQlI-F8TJPD6-70" value="" style="shape=flexArrow;endArrow=classic;startArrow=classic;html=1;rounded=0;strokeWidth=1;entryX=0;entryY=0.5;entryDx=0;entryDy=0;exitX=0.726;exitY=1;exitDx=0;exitDy=0;exitPerimeter=0;fillColor=default;" edge="1" parent="1" target="qEeFTIqIXQlI-F8TJPD6-50">
          <mxGeometry width="100" height="100" relative="1" as="geometry">
            <mxPoint x="139.69999999999993" y="450" as="sourcePoint" />
            <mxPoint x="139.51999999999998" y="380" as="targetPoint" />
          </mxGeometry>
        </mxCell>
        <mxCell id="qEeFTIqIXQlI-F8TJPD6-13" value="" style="group" vertex="1" connectable="0" parent="1">
          <mxGeometry x="510" y="120" width="182.5" height="440" as="geometry" />
        </mxCell>
        <mxCell id="qEeFTIqIXQlI-F8TJPD6-12" value="&lt;div&gt;&lt;b&gt;DIMM&lt;/b&gt;&lt;/div&gt;&lt;div&gt;&lt;b&gt;&lt;br&gt;&lt;/b&gt;&lt;/div&gt;&lt;div&gt;&lt;b&gt;&lt;br&gt;&lt;/b&gt;&lt;/div&gt;&lt;div&gt;&lt;b&gt;&lt;br&gt;&lt;/b&gt;&lt;/div&gt;&lt;div&gt;&lt;b&gt;&lt;br&gt;&lt;/b&gt;&lt;/div&gt;&lt;div&gt;&lt;b&gt;&lt;br&gt;&lt;/b&gt;&lt;/div&gt;&lt;div&gt;&lt;b&gt;&lt;br&gt;&lt;/b&gt;&lt;/div&gt;&lt;div&gt;&lt;b&gt;&lt;br&gt;&lt;/b&gt;&lt;/div&gt;&lt;div&gt;&lt;b&gt;&lt;br&gt;&lt;/b&gt;&lt;/div&gt;&lt;div&gt;&lt;b&gt;&lt;br&gt;&lt;/b&gt;&lt;/div&gt;&lt;div&gt;&lt;b&gt;&lt;br&gt;&lt;/b&gt;&lt;/div&gt;&lt;div&gt;&lt;b&gt;&lt;br&gt;&lt;/b&gt;&lt;/div&gt;&lt;div&gt;&lt;b&gt;&lt;br&gt;&lt;/b&gt;&lt;/div&gt;&lt;div&gt;&lt;b&gt;&lt;br&gt;&lt;/b&gt;&lt;/div&gt;&lt;div&gt;&lt;b&gt;&lt;br&gt;&lt;/b&gt;&lt;/div&gt;&lt;div&gt;&lt;b&gt;&lt;br&gt;&lt;/b&gt;&lt;/div&gt;&lt;div&gt;&lt;b&gt;&lt;br&gt;&lt;/b&gt;&lt;/div&gt;&lt;div&gt;&lt;b&gt;&lt;br&gt;&lt;/b&gt;&lt;/div&gt;&lt;div&gt;&lt;b&gt;&lt;br&gt;&lt;/b&gt;&lt;/div&gt;&lt;div&gt;&lt;b&gt;&lt;br&gt;&lt;/b&gt;&lt;/div&gt;&lt;div&gt;&lt;b&gt;&lt;br&gt;&lt;/b&gt;&lt;/div&gt;&lt;div&gt;&lt;b&gt;&lt;br&gt;&lt;/b&gt;&lt;/div&gt;&lt;div&gt;&lt;b&gt;&lt;br&gt;&lt;/b&gt;&lt;/div&gt;&lt;div&gt;&lt;b&gt;&lt;br&gt;&lt;/b&gt;&lt;/div&gt;&lt;div&gt;&lt;b&gt;&lt;br&gt;&lt;/b&gt;&lt;/div&gt;&lt;div&gt;&lt;b&gt;&lt;br&gt;&lt;/b&gt;&lt;/div&gt;" style="rounded=0;whiteSpace=wrap;html=1;" vertex="1" parent="qEeFTIqIXQlI-F8TJPD6-13">
          <mxGeometry width="125" height="390" as="geometry" />
        </mxCell>
        <mxCell id="qEeFTIqIXQlI-F8TJPD6-6" value="DRAM" style="rounded=0;whiteSpace=wrap;html=1;" vertex="1" parent="qEeFTIqIXQlI-F8TJPD6-13">
          <mxGeometry x="10" y="30" width="105" height="50" as="geometry" />
        </mxCell>
        <mxCell id="qEeFTIqIXQlI-F8TJPD6-7" value="DRAM" style="rounded=0;whiteSpace=wrap;html=1;" vertex="1" parent="qEeFTIqIXQlI-F8TJPD6-13">
          <mxGeometry x="10" y="90" width="105" height="50" as="geometry" />
        </mxCell>
        <mxCell id="qEeFTIqIXQlI-F8TJPD6-8" value="DRAM" style="rounded=0;whiteSpace=wrap;html=1;" vertex="1" parent="qEeFTIqIXQlI-F8TJPD6-13">
          <mxGeometry x="10" y="150" width="105" height="50" as="geometry" />
        </mxCell>
        <mxCell id="qEeFTIqIXQlI-F8TJPD6-9" value="DRAM" style="rounded=0;whiteSpace=wrap;html=1;" vertex="1" parent="qEeFTIqIXQlI-F8TJPD6-13">
          <mxGeometry x="10" y="210" width="105" height="50" as="geometry" />
        </mxCell>
        <mxCell id="qEeFTIqIXQlI-F8TJPD6-10" value="DRAM" style="rounded=0;whiteSpace=wrap;html=1;" vertex="1" parent="qEeFTIqIXQlI-F8TJPD6-13">
          <mxGeometry x="10" y="270" width="105" height="50" as="geometry" />
        </mxCell>
        <mxCell id="qEeFTIqIXQlI-F8TJPD6-11" value="DRAM" style="rounded=0;whiteSpace=wrap;html=1;" vertex="1" parent="qEeFTIqIXQlI-F8TJPD6-13">
          <mxGeometry x="10" y="330" width="105" height="50" as="geometry" />
        </mxCell>
        <mxCell id="qEeFTIqIXQlI-F8TJPD6-15" value="" style="group" vertex="1" connectable="0" parent="qEeFTIqIXQlI-F8TJPD6-13">
          <mxGeometry x="27.5" y="20" width="155" height="420" as="geometry" />
        </mxCell>
        <mxCell id="qEeFTIqIXQlI-F8TJPD6-16" value="&lt;div&gt;&lt;b&gt;DIMM&lt;/b&gt;&lt;/div&gt;&lt;div&gt;&lt;b&gt;&lt;br&gt;&lt;/b&gt;&lt;/div&gt;&lt;div&gt;&lt;b&gt;&lt;br&gt;&lt;/b&gt;&lt;/div&gt;&lt;div&gt;&lt;b&gt;&lt;br&gt;&lt;/b&gt;&lt;/div&gt;&lt;div&gt;&lt;b&gt;&lt;br&gt;&lt;/b&gt;&lt;/div&gt;&lt;div&gt;&lt;b&gt;&lt;br&gt;&lt;/b&gt;&lt;/div&gt;&lt;div&gt;&lt;b&gt;&lt;br&gt;&lt;/b&gt;&lt;/div&gt;&lt;div&gt;&lt;b&gt;&lt;br&gt;&lt;/b&gt;&lt;/div&gt;&lt;div&gt;&lt;b&gt;&lt;br&gt;&lt;/b&gt;&lt;/div&gt;&lt;div&gt;&lt;b&gt;&lt;br&gt;&lt;/b&gt;&lt;/div&gt;&lt;div&gt;&lt;b&gt;&lt;br&gt;&lt;/b&gt;&lt;/div&gt;&lt;div&gt;&lt;b&gt;&lt;br&gt;&lt;/b&gt;&lt;/div&gt;&lt;div&gt;&lt;b&gt;&lt;br&gt;&lt;/b&gt;&lt;/div&gt;&lt;div&gt;&lt;b&gt;&lt;br&gt;&lt;/b&gt;&lt;/div&gt;&lt;div&gt;&lt;b&gt;&lt;br&gt;&lt;/b&gt;&lt;/div&gt;&lt;div&gt;&lt;b&gt;&lt;br&gt;&lt;/b&gt;&lt;/div&gt;&lt;div&gt;&lt;b&gt;&lt;br&gt;&lt;/b&gt;&lt;/div&gt;&lt;div&gt;&lt;b&gt;&lt;br&gt;&lt;/b&gt;&lt;/div&gt;&lt;div&gt;&lt;b&gt;&lt;br&gt;&lt;/b&gt;&lt;/div&gt;&lt;div&gt;&lt;b&gt;&lt;br&gt;&lt;/b&gt;&lt;/div&gt;&lt;div&gt;&lt;b&gt;&lt;br&gt;&lt;/b&gt;&lt;/div&gt;&lt;div&gt;&lt;b&gt;&lt;br&gt;&lt;/b&gt;&lt;/div&gt;&lt;div&gt;&lt;b&gt;&lt;br&gt;&lt;/b&gt;&lt;/div&gt;&lt;div&gt;&lt;b&gt;&lt;br&gt;&lt;/b&gt;&lt;/div&gt;&lt;div&gt;&lt;b&gt;&lt;br&gt;&lt;/b&gt;&lt;/div&gt;&lt;div&gt;&lt;b&gt;&lt;br&gt;&lt;/b&gt;&lt;/div&gt;" style="rounded=0;whiteSpace=wrap;html=1;" vertex="1" parent="qEeFTIqIXQlI-F8TJPD6-15">
          <mxGeometry width="125" height="390" as="geometry" />
        </mxCell>
        <mxCell id="qEeFTIqIXQlI-F8TJPD6-17" value="DRAM" style="rounded=0;whiteSpace=wrap;html=1;" vertex="1" parent="qEeFTIqIXQlI-F8TJPD6-15">
          <mxGeometry x="10" y="30" width="105" height="50" as="geometry" />
        </mxCell>
        <mxCell id="qEeFTIqIXQlI-F8TJPD6-18" value="DRAM" style="rounded=0;whiteSpace=wrap;html=1;" vertex="1" parent="qEeFTIqIXQlI-F8TJPD6-15">
          <mxGeometry x="10" y="90" width="105" height="50" as="geometry" />
        </mxCell>
        <mxCell id="qEeFTIqIXQlI-F8TJPD6-19" value="DRAM" style="rounded=0;whiteSpace=wrap;html=1;" vertex="1" parent="qEeFTIqIXQlI-F8TJPD6-15">
          <mxGeometry x="10" y="150" width="105" height="50" as="geometry" />
        </mxCell>
        <mxCell id="qEeFTIqIXQlI-F8TJPD6-20" value="DRAM" style="rounded=0;whiteSpace=wrap;html=1;" vertex="1" parent="qEeFTIqIXQlI-F8TJPD6-15">
          <mxGeometry x="10" y="210" width="105" height="50" as="geometry" />
        </mxCell>
        <mxCell id="qEeFTIqIXQlI-F8TJPD6-21" value="DRAM" style="rounded=0;whiteSpace=wrap;html=1;" vertex="1" parent="qEeFTIqIXQlI-F8TJPD6-15">
          <mxGeometry x="10" y="270" width="105" height="50" as="geometry" />
        </mxCell>
        <mxCell id="qEeFTIqIXQlI-F8TJPD6-22" value="DRAM" style="rounded=0;whiteSpace=wrap;html=1;" vertex="1" parent="qEeFTIqIXQlI-F8TJPD6-15">
          <mxGeometry x="10" y="330" width="105" height="50" as="geometry" />
        </mxCell>
        <mxCell id="qEeFTIqIXQlI-F8TJPD6-23" value="" style="group" vertex="1" connectable="0" parent="qEeFTIqIXQlI-F8TJPD6-15">
          <mxGeometry x="30" y="20" width="125" height="390" as="geometry" />
        </mxCell>
        <mxCell id="qEeFTIqIXQlI-F8TJPD6-24" value="&lt;div&gt;&lt;b&gt;DIMM&lt;/b&gt;&lt;/div&gt;&lt;div&gt;&lt;b&gt;&lt;br&gt;&lt;/b&gt;&lt;/div&gt;&lt;div&gt;&lt;b&gt;&lt;br&gt;&lt;/b&gt;&lt;/div&gt;&lt;div&gt;&lt;b&gt;&lt;br&gt;&lt;/b&gt;&lt;/div&gt;&lt;div&gt;&lt;b&gt;&lt;br&gt;&lt;/b&gt;&lt;/div&gt;&lt;div&gt;&lt;b&gt;&lt;br&gt;&lt;/b&gt;&lt;/div&gt;&lt;div&gt;&lt;b&gt;&lt;br&gt;&lt;/b&gt;&lt;/div&gt;&lt;div&gt;&lt;b&gt;&lt;br&gt;&lt;/b&gt;&lt;/div&gt;&lt;div&gt;&lt;b&gt;&lt;br&gt;&lt;/b&gt;&lt;/div&gt;&lt;div&gt;&lt;b&gt;&lt;br&gt;&lt;/b&gt;&lt;/div&gt;&lt;div&gt;&lt;b&gt;&lt;br&gt;&lt;/b&gt;&lt;/div&gt;&lt;div&gt;&lt;b&gt;&lt;br&gt;&lt;/b&gt;&lt;/div&gt;&lt;div&gt;&lt;b&gt;&lt;br&gt;&lt;/b&gt;&lt;/div&gt;&lt;div&gt;&lt;b&gt;&lt;br&gt;&lt;/b&gt;&lt;/div&gt;&lt;div&gt;&lt;b&gt;&lt;br&gt;&lt;/b&gt;&lt;/div&gt;&lt;div&gt;&lt;b&gt;&lt;br&gt;&lt;/b&gt;&lt;/div&gt;&lt;div&gt;&lt;b&gt;&lt;br&gt;&lt;/b&gt;&lt;/div&gt;&lt;div&gt;&lt;b&gt;&lt;br&gt;&lt;/b&gt;&lt;/div&gt;&lt;div&gt;&lt;b&gt;&lt;br&gt;&lt;/b&gt;&lt;/div&gt;&lt;div&gt;&lt;b&gt;&lt;br&gt;&lt;/b&gt;&lt;/div&gt;&lt;div&gt;&lt;b&gt;&lt;br&gt;&lt;/b&gt;&lt;/div&gt;&lt;div&gt;&lt;b&gt;&lt;br&gt;&lt;/b&gt;&lt;/div&gt;&lt;div&gt;&lt;b&gt;&lt;br&gt;&lt;/b&gt;&lt;/div&gt;&lt;div&gt;&lt;b&gt;&lt;br&gt;&lt;/b&gt;&lt;/div&gt;&lt;div&gt;&lt;b&gt;&lt;br&gt;&lt;/b&gt;&lt;/div&gt;&lt;div&gt;&lt;b&gt;&lt;br&gt;&lt;/b&gt;&lt;/div&gt;" style="rounded=0;whiteSpace=wrap;html=1;" vertex="1" parent="qEeFTIqIXQlI-F8TJPD6-23">
          <mxGeometry width="125" height="390" as="geometry" />
        </mxCell>
        <mxCell id="qEeFTIqIXQlI-F8TJPD6-25" value="DRAM" style="rounded=0;whiteSpace=wrap;html=1;" vertex="1" parent="qEeFTIqIXQlI-F8TJPD6-23">
          <mxGeometry x="10" y="30" width="105" height="50" as="geometry" />
        </mxCell>
        <mxCell id="qEeFTIqIXQlI-F8TJPD6-26" value="DRAM" style="rounded=0;whiteSpace=wrap;html=1;" vertex="1" parent="qEeFTIqIXQlI-F8TJPD6-23">
          <mxGeometry x="10" y="90" width="105" height="50" as="geometry" />
        </mxCell>
        <mxCell id="qEeFTIqIXQlI-F8TJPD6-27" value="DRAM" style="rounded=0;whiteSpace=wrap;html=1;" vertex="1" parent="qEeFTIqIXQlI-F8TJPD6-23">
          <mxGeometry x="10" y="150" width="105" height="50" as="geometry" />
        </mxCell>
        <mxCell id="qEeFTIqIXQlI-F8TJPD6-28" value="DRAM" style="rounded=0;whiteSpace=wrap;html=1;" vertex="1" parent="qEeFTIqIXQlI-F8TJPD6-23">
          <mxGeometry x="10" y="210" width="105" height="50" as="geometry" />
        </mxCell>
        <mxCell id="qEeFTIqIXQlI-F8TJPD6-29" value="DRAM" style="rounded=0;whiteSpace=wrap;html=1;" vertex="1" parent="qEeFTIqIXQlI-F8TJPD6-23">
          <mxGeometry x="10" y="270" width="105" height="50" as="geometry" />
        </mxCell>
        <mxCell id="qEeFTIqIXQlI-F8TJPD6-30" value="DRAM" style="rounded=0;whiteSpace=wrap;html=1;" vertex="1" parent="qEeFTIqIXQlI-F8TJPD6-23">
          <mxGeometry x="10" y="330" width="105" height="50" as="geometry" />
        </mxCell>
        <mxCell id="qEeFTIqIXQlI-F8TJPD6-31" value="" style="group" vertex="1" connectable="0" parent="1">
          <mxGeometry x="597.5" y="180" width="125" height="390" as="geometry" />
        </mxCell>
        <mxCell id="qEeFTIqIXQlI-F8TJPD6-32" value="&lt;div&gt;&lt;b&gt;DIMM&lt;/b&gt;&lt;/div&gt;&lt;div&gt;&lt;b&gt;&lt;br&gt;&lt;/b&gt;&lt;/div&gt;&lt;div&gt;&lt;b&gt;&lt;br&gt;&lt;/b&gt;&lt;/div&gt;&lt;div&gt;&lt;b&gt;&lt;br&gt;&lt;/b&gt;&lt;/div&gt;&lt;div&gt;&lt;b&gt;&lt;br&gt;&lt;/b&gt;&lt;/div&gt;&lt;div&gt;&lt;b&gt;&lt;br&gt;&lt;/b&gt;&lt;/div&gt;&lt;div&gt;&lt;b&gt;&lt;br&gt;&lt;/b&gt;&lt;/div&gt;&lt;div&gt;&lt;b&gt;&lt;br&gt;&lt;/b&gt;&lt;/div&gt;&lt;div&gt;&lt;b&gt;&lt;br&gt;&lt;/b&gt;&lt;/div&gt;&lt;div&gt;&lt;b&gt;&lt;br&gt;&lt;/b&gt;&lt;/div&gt;&lt;div&gt;&lt;b&gt;&lt;br&gt;&lt;/b&gt;&lt;/div&gt;&lt;div&gt;&lt;b&gt;&lt;br&gt;&lt;/b&gt;&lt;/div&gt;&lt;div&gt;&lt;b&gt;&lt;br&gt;&lt;/b&gt;&lt;/div&gt;&lt;div&gt;&lt;b&gt;&lt;br&gt;&lt;/b&gt;&lt;/div&gt;&lt;div&gt;&lt;b&gt;&lt;br&gt;&lt;/b&gt;&lt;/div&gt;&lt;div&gt;&lt;b&gt;&lt;br&gt;&lt;/b&gt;&lt;/div&gt;&lt;div&gt;&lt;b&gt;&lt;br&gt;&lt;/b&gt;&lt;/div&gt;&lt;div&gt;&lt;b&gt;&lt;br&gt;&lt;/b&gt;&lt;/div&gt;&lt;div&gt;&lt;b&gt;&lt;br&gt;&lt;/b&gt;&lt;/div&gt;&lt;div&gt;&lt;b&gt;&lt;br&gt;&lt;/b&gt;&lt;/div&gt;&lt;div&gt;&lt;b&gt;&lt;br&gt;&lt;/b&gt;&lt;/div&gt;&lt;div&gt;&lt;b&gt;&lt;br&gt;&lt;/b&gt;&lt;/div&gt;&lt;div&gt;&lt;b&gt;&lt;br&gt;&lt;/b&gt;&lt;/div&gt;&lt;div&gt;&lt;b&gt;&lt;br&gt;&lt;/b&gt;&lt;/div&gt;&lt;div&gt;&lt;b&gt;&lt;br&gt;&lt;/b&gt;&lt;/div&gt;&lt;div&gt;&lt;b&gt;&lt;br&gt;&lt;/b&gt;&lt;/div&gt;" style="rounded=0;whiteSpace=wrap;html=1;" vertex="1" parent="qEeFTIqIXQlI-F8TJPD6-31">
          <mxGeometry width="125" height="390" as="geometry" />
        </mxCell>
        <mxCell id="qEeFTIqIXQlI-F8TJPD6-33" value="DRAM" style="rounded=0;whiteSpace=wrap;html=1;" vertex="1" parent="qEeFTIqIXQlI-F8TJPD6-31">
          <mxGeometry x="10" y="30" width="105" height="50" as="geometry" />
        </mxCell>
        <mxCell id="qEeFTIqIXQlI-F8TJPD6-34" value="DRAM" style="rounded=0;whiteSpace=wrap;html=1;" vertex="1" parent="qEeFTIqIXQlI-F8TJPD6-31">
          <mxGeometry x="10" y="90" width="105" height="50" as="geometry" />
        </mxCell>
        <mxCell id="qEeFTIqIXQlI-F8TJPD6-35" value="DRAM" style="rounded=0;whiteSpace=wrap;html=1;" vertex="1" parent="qEeFTIqIXQlI-F8TJPD6-31">
          <mxGeometry x="10" y="150" width="105" height="50" as="geometry" />
        </mxCell>
        <mxCell id="qEeFTIqIXQlI-F8TJPD6-36" value="DRAM" style="rounded=0;whiteSpace=wrap;html=1;" vertex="1" parent="qEeFTIqIXQlI-F8TJPD6-31">
          <mxGeometry x="10" y="210" width="105" height="50" as="geometry" />
        </mxCell>
        <mxCell id="qEeFTIqIXQlI-F8TJPD6-37" value="DRAM" style="rounded=0;whiteSpace=wrap;html=1;" vertex="1" parent="qEeFTIqIXQlI-F8TJPD6-31">
          <mxGeometry x="10" y="270" width="105" height="50" as="geometry" />
        </mxCell>
        <mxCell id="qEeFTIqIXQlI-F8TJPD6-38" value="DRAM" style="rounded=0;whiteSpace=wrap;html=1;" vertex="1" parent="qEeFTIqIXQlI-F8TJPD6-31">
          <mxGeometry x="10" y="330" width="105" height="50" as="geometry" />
        </mxCell>
        <mxCell id="qEeFTIqIXQlI-F8TJPD6-47" value="Control Bus" style="rounded=0;whiteSpace=wrap;html=1;direction=west;" vertex="1" parent="1">
          <mxGeometry x="75" y="180" width="310" height="20" as="geometry" />
        </mxCell>
        <mxCell id="qEeFTIqIXQlI-F8TJPD6-63" style="edgeStyle=orthogonalEdgeStyle;rounded=0;orthogonalLoop=1;jettySize=auto;html=1;startArrow=classic;startFill=1;endArrow=classic;endFill=1;" edge="1" parent="1" source="qEeFTIqIXQlI-F8TJPD6-49">
          <mxGeometry relative="1" as="geometry">
            <mxPoint x="120" y="200" as="targetPoint" />
          </mxGeometry>
        </mxCell>
        <mxCell id="qEeFTIqIXQlI-F8TJPD6-49" value="Core" style="whiteSpace=wrap;html=1;aspect=fixed;" vertex="1" parent="1">
          <mxGeometry x="80" y="260" width="80" height="80" as="geometry" />
        </mxCell>
        <mxCell id="qEeFTIqIXQlI-F8TJPD6-64" style="edgeStyle=orthogonalEdgeStyle;rounded=0;orthogonalLoop=1;jettySize=auto;html=1;entryX=0.791;entryY=-0.024;entryDx=0;entryDy=0;entryPerimeter=0;startArrow=classic;startFill=1;endArrow=classic;endFill=1;" edge="1" parent="1" source="qEeFTIqIXQlI-F8TJPD6-51" target="qEeFTIqIXQlI-F8TJPD6-47">
          <mxGeometry relative="1" as="geometry" />
        </mxCell>
        <mxCell id="qEeFTIqIXQlI-F8TJPD6-51" value="Core" style="whiteSpace=wrap;html=1;aspect=fixed;" vertex="1" parent="1">
          <mxGeometry x="100" y="280" width="80" height="80" as="geometry" />
        </mxCell>
        <mxCell id="qEeFTIqIXQlI-F8TJPD6-60" style="edgeStyle=orthogonalEdgeStyle;rounded=0;orthogonalLoop=1;jettySize=auto;html=1;startArrow=classic;startFill=1;endArrow=classic;endFill=1;entryX=0.369;entryY=0.007;entryDx=0;entryDy=0;entryPerimeter=0;" edge="1" parent="1" source="qEeFTIqIXQlI-F8TJPD6-53" target="qEeFTIqIXQlI-F8TJPD6-47">
          <mxGeometry relative="1" as="geometry">
            <mxPoint x="279" y="200" as="targetPoint" />
          </mxGeometry>
        </mxCell>
        <mxCell id="qEeFTIqIXQlI-F8TJPD6-53" value="UMC" style="whiteSpace=wrap;html=1;aspect=fixed;" vertex="1" parent="1">
          <mxGeometry x="230" y="230" width="80" height="80" as="geometry" />
        </mxCell>
        <mxCell id="qEeFTIqIXQlI-F8TJPD6-52" value="Core" style="whiteSpace=wrap;html=1;aspect=fixed;" vertex="1" parent="1">
          <mxGeometry x="120" y="300" width="80" height="80" as="geometry" />
        </mxCell>
        <mxCell id="qEeFTIqIXQlI-F8TJPD6-57" style="edgeStyle=orthogonalEdgeStyle;rounded=0;orthogonalLoop=1;jettySize=auto;html=1;endArrow=classic;endFill=1;startArrow=classic;startFill=1;" edge="1" parent="1" source="qEeFTIqIXQlI-F8TJPD6-54">
          <mxGeometry relative="1" as="geometry">
            <mxPoint x="345" y="200" as="targetPoint" />
            <Array as="points">
              <mxPoint x="345" y="200" />
            </Array>
          </mxGeometry>
        </mxCell>
        <mxCell id="qEeFTIqIXQlI-F8TJPD6-54" value="IOC" style="whiteSpace=wrap;html=1;aspect=fixed;" vertex="1" parent="1">
          <mxGeometry x="305" y="320" width="80" height="80" as="geometry" />
        </mxCell>
        <mxCell id="qEeFTIqIXQlI-F8TJPD6-55" value="Data Bus" style="rounded=0;whiteSpace=wrap;html=1;direction=west;" vertex="1" parent="1">
          <mxGeometry x="75" y="450" width="310" height="20" as="geometry" />
        </mxCell>
        <mxCell id="qEeFTIqIXQlI-F8TJPD6-65" value="" style="endArrow=classic;startArrow=classic;html=1;rounded=0;entryX=0.727;entryY=-0.024;entryDx=0;entryDy=0;entryPerimeter=0;" edge="1" parent="1" source="qEeFTIqIXQlI-F8TJPD6-52" target="qEeFTIqIXQlI-F8TJPD6-47">
          <mxGeometry width="50" height="50" relative="1" as="geometry">
            <mxPoint x="200" y="370" as="sourcePoint" />
            <mxPoint x="250" y="320" as="targetPoint" />
          </mxGeometry>
        </mxCell>
        <mxCell id="qEeFTIqIXQlI-F8TJPD6-66" value="" style="endArrow=classic;startArrow=classic;html=1;rounded=0;entryX=0.727;entryY=-0.024;entryDx=0;entryDy=0;entryPerimeter=0;exitX=0.5;exitY=0;exitDx=0;exitDy=0;" edge="1" parent="1" source="qEeFTIqIXQlI-F8TJPD6-50">
          <mxGeometry width="50" height="50" relative="1" as="geometry">
            <mxPoint x="180.26392201834858" y="299.52" as="sourcePoint" />
            <mxPoint x="180" y="200.00000000000003" as="targetPoint" />
          </mxGeometry>
        </mxCell>
        <mxCell id="qEeFTIqIXQlI-F8TJPD6-69" value="" style="shape=flexArrow;endArrow=classic;startArrow=classic;html=1;rounded=0;strokeWidth=1;entryX=0.5;entryY=1;entryDx=0;entryDy=0;exitX=0.726;exitY=1;exitDx=0;exitDy=0;exitPerimeter=0;fillColor=default;" edge="1" parent="1" source="qEeFTIqIXQlI-F8TJPD6-55">
          <mxGeometry width="100" height="100" relative="1" as="geometry">
            <mxPoint x="159.8499999999999" y="430" as="sourcePoint" />
            <mxPoint x="159.76" y="380" as="targetPoint" />
          </mxGeometry>
        </mxCell>
        <mxCell id="qEeFTIqIXQlI-F8TJPD6-68" value="" style="shape=flexArrow;endArrow=classic;startArrow=classic;html=1;rounded=0;strokeWidth=1;entryX=0.5;entryY=1;entryDx=0;entryDy=0;exitX=0.661;exitY=1;exitDx=0;exitDy=0;exitPerimeter=0;fillColor=default;" edge="1" parent="1" source="qEeFTIqIXQlI-F8TJPD6-55" target="qEeFTIqIXQlI-F8TJPD6-50">
          <mxGeometry width="100" height="100" relative="1" as="geometry">
            <mxPoint x="180" y="430" as="sourcePoint" />
            <mxPoint x="280" y="330" as="targetPoint" />
          </mxGeometry>
        </mxCell>
        <mxCell id="qEeFTIqIXQlI-F8TJPD6-50" value="Core" style="whiteSpace=wrap;html=1;aspect=fixed;" vertex="1" parent="1">
          <mxGeometry x="140" y="320" width="80" height="80" as="geometry" />
        </mxCell>
        <mxCell id="qEeFTIqIXQlI-F8TJPD6-74" value="" style="shape=flexArrow;endArrow=classic;startArrow=classic;html=1;rounded=0;strokeWidth=1;exitX=0.367;exitY=1.021;exitDx=0;exitDy=0;exitPerimeter=0;fillColor=default;" edge="1" parent="1" source="qEeFTIqIXQlI-F8TJPD6-55" target="qEeFTIqIXQlI-F8TJPD6-53">
          <mxGeometry width="100" height="100" relative="1" as="geometry">
            <mxPoint x="289.8499999999999" y="450" as="sourcePoint" />
            <mxPoint x="289.76" y="400" as="targetPoint" />
          </mxGeometry>
        </mxCell>
        <mxCell id="qEeFTIqIXQlI-F8TJPD6-76" value="" style="shape=flexArrow;endArrow=classic;startArrow=classic;html=1;rounded=0;strokeWidth=1;entryX=0.5;entryY=1;entryDx=0;entryDy=0;exitX=0.661;exitY=1;exitDx=0;exitDy=0;exitPerimeter=0;fillColor=default;" edge="1" parent="1">
          <mxGeometry width="100" height="100" relative="1" as="geometry">
            <mxPoint x="344.80000000000007" y="450" as="sourcePoint" />
            <mxPoint x="344.71000000000004" y="400" as="targetPoint" />
          </mxGeometry>
        </mxCell>
      </root>
    </mxGraphModel>
  </diagram>
</mxfile>
